<?xml version="1.0" encoding="UTF-8" standalone="no"?>
<!-- Created with Inkscape (http://www.inkscape.org/) -->

<svg
   width="187.70212"
   height="45.719131"
   viewBox="0 0 49.662852 12.09652"
   version="1.1"
   id="svg1"
   xml:space="preserve"
   xmlns="http://www.w3.org/2000/svg"
   xmlns:svg="http://www.w3.org/2000/svg"><defs
     id="defs1" /><g
     id="layer1"
     transform="translate(-111.28128,-42.862512)"><text
       xml:space="preserve"
       style="font-style:normal;font-variant:normal;font-weight:500;font-stretch:normal;font-size:9.87777px;font-family:'Noto Sans CJK HK';-inkscape-font-specification:'Noto Sans CJK HK Medium';text-align:start;writing-mode:lr-tb;direction:ltr;text-anchor:start;fill:#000000;fill-opacity:1;stroke:#0000ff;stroke-width:0;stroke-dasharray:none;stroke-opacity:1"
       x="110.72813"
       y="50.270836"
       id="text6"><tspan
         id="tspan6"
         style="stroke-width:0"
         x="110.72813"
         y="50.270836">GEOPLACE</tspan></text><rect
       style="fill:#000000;fill-opacity:1;stroke:#0000ff;stroke-width:0;stroke-dasharray:none;stroke-opacity:1"
       id="rect6"
       width="18.895956"
       height="1.1693043"
       x="111.64516"
       y="51.168755" /><rect
       style="fill:#000000;fill-opacity:1;stroke:#0000ff;stroke-width:0;stroke-dasharray:none;stroke-opacity:1"
       id="rect6-0"
       width="18.333717"
       height="1.1693043"
       x="142.61041"
       y="51.064583" /><text
       xml:space="preserve"
       style="font-style:normal;font-variant:normal;font-weight:500;font-stretch:normal;font-size:16.9333px;font-family:'Noto Sans CJK HK';-inkscape-font-specification:'Noto Sans CJK HK Medium';text-align:start;writing-mode:lr-tb;direction:ltr;text-anchor:start;fill:#000000;fill-opacity:1;stroke:#0000ff;stroke-width:0;stroke-dasharray:none;stroke-opacity:1"
       x="133.8537"
       y="54.721962"
       id="text7"><tspan
         id="tspan7"
         style="font-size:16.9333px;stroke-width:0"
         x="133.8537"
         y="54.721962">.</tspan></text><path
       style="fill:#008000;fill-opacity:1;stroke:#0000ff;stroke-width:0;stroke-dasharray:none;stroke-opacity:1"
       d="m 539.16892,195.16147 v -2.12132 h 34.47145 34.47146 v 2.12132 2.12132 h -34.47146 -34.47145 z"
       id="path9"
       transform="scale(0.26458334)" /><path
       style="fill:#008000;fill-opacity:1;stroke:#0000ff;stroke-width:0;stroke-dasharray:none;stroke-opacity:1"
       d="m 513.47459,207.01996 c -3.04727,-1.3255 -3.61598,-5.86078 -1.03187,-8.22894 1.08051,-0.99021 1.51842,-1.15468 3.07452,-1.15468 1.63641,0 1.94931,0.13476 3.18718,1.37262 1.25406,1.25406 1.3725,1.53654 1.37129,3.27037 -0.003,3.99243 -3.14061,6.24587 -6.60112,4.74063 z"
       id="path10"
       transform="scale(0.26458334)" /><path
       style="fill:#008000;fill-opacity:1;stroke:#0000ff;stroke-width:0;stroke-dasharray:none;stroke-opacity:1"
       d="m 439.64364,193.21748 c 9.81994,-0.11089 25.88895,-0.11089 35.70889,0 9.81995,0.11089 1.78545,0.20162 -17.85444,0.20162 -19.6399,0 -27.6744,-0.0907 -17.85445,-0.20162 z"
       id="path11"
       transform="scale(0.26458334)" /><path
       style="fill:#008000;fill-opacity:1;stroke:#0000ff;stroke-width:0;stroke-dasharray:none;stroke-opacity:1"
       d="m 421.96597,195.62094 v -2.19218 l 35.70889,-5.1e-4 35.7089,-5.1e-4 v 2.19269 2.19269 h -35.7089 -35.70889 z"
       id="path12"
       transform="scale(0.26458334)" /></g></svg>
